M48
; DRILL file {KiCad 9.0.7} date 2026-06-12T20:47:09+0530
; FORMAT={-:-/ absolute / metric / decimal}
; #@! TF.CreationDate,2026-06-12T20:47:09+05:30
; #@! TF.GenerationSoftware,Kicad,Pcbnew,9.0.7
; #@! TF.FileFunction,Plated,1,4,PTH
FMAT,2
METRIC
; #@! TA.AperFunction,Plated,PTH,ComponentDrill
T1C0.200
; #@! TA.AperFunction,Plated,PTH,ViaDrill
T2C0.300
; #@! TA.AperFunction,Plated,PTH,ComponentDrill
T3C0.650
; #@! TA.AperFunction,Plated,PTH,ComponentDrill
T4C0.750
; #@! TA.AperFunction,Plated,PTH,ComponentDrill
T5C0.800
; #@! TA.AperFunction,Plated,PTH,ComponentDrill
T6C1.000
; #@! TA.AperFunction,Plated,PTH,ComponentDrill
T7C1.500
%
G90
G05
T1
X105.545Y-90.4
X105.545Y-91.8
X106.245Y-89.7
X106.245Y-91.1
X106.245Y-92.5
X106.945Y-90.4
X106.945Y-91.8
X107.645Y-89.7
X107.645Y-91.1
X107.645Y-92.5
X108.345Y-90.4
X108.345Y-91.8
T2
X100.55Y-79.15
X101.8Y-78.85
X103.05Y-96.125
X104.275Y-96.025
X105.475Y-95.9
X106.75Y-93.9
X108.2Y-96.425
X109.325Y-100.525
X110.475Y-99.6
X111.225Y-101.075
X111.425Y-99.65
X114.375Y-103.3
X115.25Y-91.975
X118.65Y-87.6
X121.2Y-80.675
X140.475Y-81.95
X141.475Y-74.325
X141.563Y-91.187
X145.875Y-84.325
X146.5Y-82.55
X146.775Y-79.125
X149.65Y-97.15
X149.675Y-75.4
X166.9Y-95.95
X168.975Y-91.55
X169.225Y-86.175
X170.4Y-101.475
X170.525Y-103.15
X170.65Y-111.75
X170.9Y-84.475
X171.25Y-116.8
X171.7Y-93.4
X172.05Y-95.575
X172.15Y-109.5
X172.737Y-108.887
X173.7Y-108.275
X173.95Y-86.975
X174.55Y-65.9
X175.525Y-83.85
X175.551Y-85.324
X177.5Y-87.275
X177.5Y-91.447
X177.515Y-61.152
X178.85Y-108.475
X179.0Y-85.5
X179.25Y-96.85
X179.35Y-104.7
X179.5Y-105.575
X180.171Y-104.296
X182.35Y-96.925
X182.45Y-94.15
X184.775Y-106.725
X184.829Y-108.444
X185.525Y-107.225
X190.475Y-90.85
X190.6Y-108.112
X190.85Y-104.175
X190.875Y-105.15
X191.45Y-103.6
X193.05Y-82.4
X194.75Y-78.55
T4
X100.65Y-76.1
X102.65Y-76.1
X104.65Y-76.1
X106.65Y-76.1
X120.875Y-105.275
X120.875Y-107.275
X120.875Y-109.275
X120.875Y-111.275
X123.525Y-85.55
X123.525Y-87.55
X123.525Y-89.55
X123.525Y-91.55
X123.525Y-93.55
X123.525Y-95.55
X126.6Y-63.7
X126.6Y-68.7
X150.225Y-105.925
X150.225Y-110.925
X150.275Y-84.425
X150.275Y-89.425
X150.75Y-63.65
X150.75Y-68.65
X152.675Y-121.275
X152.675Y-123.275
T5
X125.535Y-59.785
X125.535Y-72.485
X128.075Y-59.785
X128.075Y-72.485
X130.525Y-83.4
X130.525Y-85.4
X130.525Y-87.4
X130.525Y-91.4
X130.615Y-59.785
X130.615Y-72.485
X130.625Y-98.975
X130.625Y-100.975
X130.625Y-102.975
X130.625Y-106.975
X133.155Y-59.785
X133.155Y-72.485
X135.695Y-59.785
X135.695Y-72.485
X138.235Y-59.785
X138.235Y-72.485
X140.775Y-59.785
X140.775Y-72.485
X143.315Y-59.785
X143.315Y-72.485
X149.11Y-102.085
X149.11Y-114.785
X149.285Y-80.56
X149.285Y-93.26
X149.485Y-59.925
X149.485Y-72.625
X151.65Y-102.085
X151.65Y-114.785
X151.825Y-80.56
X151.825Y-93.26
X152.025Y-59.925
X152.025Y-72.625
X154.19Y-102.085
X154.19Y-114.785
X154.365Y-80.56
X154.365Y-93.26
X154.565Y-59.925
X154.565Y-72.625
X156.73Y-102.085
X156.73Y-114.785
X156.905Y-80.56
X156.905Y-93.26
X157.105Y-59.925
X157.105Y-72.625
X159.27Y-102.085
X159.27Y-114.785
X159.445Y-80.56
X159.445Y-93.26
X159.645Y-59.925
X159.645Y-72.625
X161.81Y-102.085
X161.81Y-114.785
X161.985Y-80.56
X161.985Y-93.26
X162.185Y-59.925
X162.185Y-72.625
X164.35Y-102.085
X164.35Y-114.785
X164.525Y-80.56
X164.525Y-93.26
X164.725Y-59.925
X164.725Y-72.625
X166.89Y-102.085
X166.89Y-114.785
X167.065Y-80.56
X167.065Y-93.26
X167.265Y-59.925
X167.265Y-72.625
T6
X100.285Y-109.725
X101.525Y-65.675
X101.525Y-70.675
X105.285Y-109.725
X130.655Y-55.875
X133.195Y-55.875
X135.735Y-55.875
X138.275Y-55.875
X140.25Y-69.1
X140.26Y-66.175
X140.275Y-63.275
X142.79Y-69.1
X142.8Y-66.175
X142.815Y-63.275
X154.19Y-97.6
X154.405Y-76.25
X154.615Y-55.825
X156.73Y-97.6
X156.945Y-76.25
X157.155Y-55.825
X159.27Y-97.6
X159.485Y-76.25
X159.695Y-55.825
X161.81Y-97.6
X162.025Y-76.25
X162.235Y-55.825
X163.91Y-105.5
X163.925Y-108.425
X163.935Y-111.375
X164.025Y-89.875
X164.035Y-83.95
X164.035Y-86.9
X164.235Y-63.3
X164.25Y-66.275
X164.285Y-69.25
X166.45Y-105.5
X166.465Y-108.425
X166.475Y-111.375
X166.565Y-89.875
X166.575Y-83.95
X166.575Y-86.9
X166.775Y-63.3
X166.79Y-66.275
X166.825Y-69.25
X175.385Y-123.5
X177.925Y-123.5
X180.465Y-123.5
X183.005Y-123.5
X183.445Y-84.035
X183.445Y-86.575
X183.445Y-89.115
X183.635Y-72.285
X183.635Y-74.825
X183.635Y-77.365
X185.545Y-123.5
X188.035Y-84.035
X188.035Y-86.575
X188.035Y-89.115
X188.085Y-123.5
X188.225Y-72.285
X188.225Y-74.825
X188.225Y-77.365
X190.625Y-123.5
X192.625Y-84.035
X192.625Y-86.575
X192.625Y-89.115
X192.815Y-72.285
X192.815Y-74.825
X192.815Y-77.365
X193.165Y-123.5
X197.215Y-84.035
X197.215Y-86.575
X197.215Y-89.115
X197.405Y-72.285
X197.405Y-74.825
X197.405Y-77.365
T7
X130.525Y-81.3
X130.525Y-93.5
X130.625Y-96.875
X130.625Y-109.075
T3
G00X102.28Y-120.85
M15
G01X102.28Y-121.65
M16
G05
G00X102.28Y-124.65
M15
G01X102.28Y-125.85
M16
G05
G00X113.52Y-120.85
M15
G01X113.52Y-121.65
M16
G05
G00X113.52Y-124.65
M15
G01X113.52Y-125.85
M16
G05
M30
